<svg width="48" height="48" viewBox="0 0 48 48" fill="none" xmlns="http://www.w3.org/2000/svg">
<g clip-path="url(#clip0_3837_13)">
<path d="M46.7368 0H1.26316C0.565535 0 0 0.565535 0 1.26316V46.7368C0 47.4345 0.565535 48 1.26316 48H46.7368C47.4345 48 48 47.4345 48 46.7368V1.26316C48 0.565535 47.4345 0 46.7368 0Z" fill="#765B3B"/>
<path d="M0 1.26316C0 0.565536 0.565535 0 1.26316 0H46.7368C47.4345 0 48 0.565535 48 1.26316V21.4737C48 22.1713 47.4345 22.7368 46.7368 22.7368H29.0526C19.0869 22.7368 16.1867 17.2086 20.0444 9.78674C20.1404 9.60207 20.1096 9.37278 19.9624 9.22561C19.7601 9.0232 19.4212 9.05197 19.2547 9.28487C12.1672 19.2043 17.8228 27.7895 27.1579 27.7895H46.7368C47.4345 27.7895 48 28.355 48 29.0526V46.7368C48 47.4345 47.4345 48 46.7368 48H1.26316C0.565536 48 0 47.4345 0 46.7368V1.26316Z" fill="white"/>
<path d="M34.9516 33.1852C35.1782 32.6564 35.8033 32.4274 36.3179 32.6847L39.4765 34.264C39.99 34.5208 40.1823 35.1561 39.8975 35.6546L38.3918 38.2896C38.1178 38.7691 37.5069 38.9357 37.0274 38.6617L34.2489 37.074C33.8077 36.8218 33.6257 36.2789 33.8259 35.8118L34.9516 33.1852Z" fill="#765B3B"/>
</g>
<defs>
<clipPath id="clip0_3837_13">
<rect width="48" height="48" fill="white"/>
</clipPath>
</defs>
</svg>
