<svg width="48" height="48" viewBox="0 0 48 48" fill="none" xmlns="http://www.w3.org/2000/svg">
<g clip-path="url(#clip0_3846_6)">
<path d="M20.2109 7.60553V6.31584C20.2109 4.36805 18.3693 2.52637 16.4215 2.52637C15.0699 2.52637 13.7436 2.74489 13.688 2.75374L12.632 2.92931V6.86152C6.78736 10.4918 4.18273 16.2582 3.14062 20.2106H15.6118C26.8968 20.2106 35.1048 25.2632 35.1048 32.8422C34.4088 31.6649 33.0459 30.3158 30.9478 30.3158C27.7608 30.3158 25.2636 33.6455 25.2636 37.8948C25.2636 41.0262 26.6922 43.5146 28.1095 45.2148C28.7019 45.9259 29.7996 46.9832 30.8758 47.9748C31.1133 47.9798 31.3343 48.0001 31.5794 48.0001C41.8589 48.0001 48.0004 39.0089 48.0004 30.3158C48.0004 15.3537 31.8686 8.10068 20.2109 7.60553Z" fill="#FE8000"/>
<path d="M31.578 48.0001C26.1982 48.0001 22.7271 46.4375 19.6639 45.0569C17.1502 43.9251 14.9776 42.9474 12.1039 42.9474C10.2079 42.9474 8.1856 44.0375 7.24581 45.0645L5.38265 43.3567C6.67865 41.9432 9.33507 40.4211 12.1039 40.4211C15.3098 40.4211 17.7224 41.419 20.2096 42.5331V31.579C20.2096 29.9306 19.3873 28.5739 18.7734 27.7908C18.061 28.2518 17.2702 28.6763 16.3949 29.0539L15.3944 26.7348C22.021 23.8788 22.7359 17.6868 22.7359 15.1579V10.3895C21.4806 10.2092 20.2146 10.1142 18.9464 10.1053H17.6833V6.31584C17.6833 5.74868 16.9873 5.05268 16.4201 5.05268C15.9805 5.05268 15.5372 5.08047 15.157 5.11584V12.6316H12.6307V9.92216C6.25423 14.7462 5.20329 22.4325 5.06939 23.7916C5.4976 24.2186 6.89718 24.9664 8.44329 25.6043L10.2294 22.8215L10.813 22.747C15.0559 22.2026 17.6833 18.3841 17.6833 15.1579H20.2096C20.2096 19.2986 16.9848 24.1693 11.7313 25.1584L9.46265 28.6927L8.5115 28.3441C2.52539 26.1449 2.52539 24.5306 2.52539 24.0001C2.52539 21.6544 4.26097 12.0594 12.6307 6.86152V2.92931L13.6867 2.75374C13.7422 2.74489 15.0685 2.52637 16.4201 2.52637C18.3679 2.52637 20.2096 4.36805 20.2096 6.31584V7.60553C31.8673 8.10068 47.9991 15.3537 47.9991 30.3158C47.9991 39.0089 41.8576 48.0001 31.578 48.0001ZM30.9464 32.8422C29.2349 32.8422 27.7885 35.1563 27.7885 37.8948C27.7885 41.9142 30.9805 44.6956 31.9822 45.4674C36.2732 45.3487 39.6875 43.3352 42.0054 40.4211H32.8412V37.8948H43.6336C44.0517 37.0851 44.4003 36.2375 44.6782 35.3685H33.4336L33.1304 34.5411C33.1064 34.4805 32.4572 32.8422 30.9464 32.8422ZM22.7359 43.6459C24.3262 44.3053 26.0416 44.8927 28.1081 45.2148C26.6909 43.5146 25.2622 41.0262 25.2622 37.8948C25.2622 33.6455 27.7595 30.3158 30.9464 30.3158C33.0445 30.3158 34.4075 31.6649 35.1035 32.8422H45.2757C45.4058 32.0047 45.4728 31.1584 45.4728 30.3158C45.4728 28.4906 45.2075 26.8118 44.7262 25.2708L38.7869 31.2089L37.0008 29.4228L43.6867 22.7369C42.9622 21.3447 42.051 20.0578 40.9784 18.9121L33.7342 26.1563L31.9481 24.3702L39.1469 17.1714C37.9419 16.1661 36.6458 15.2755 35.2753 14.5112L28.6816 21.1036L26.8955 19.3175L32.9018 13.3112C30.4521 12.2113 27.8907 11.3796 25.2622 10.8304V15.1579C25.2622 17.5087 24.7418 22.5032 20.7654 26.2358C21.6269 27.3335 22.7359 29.2081 22.7359 31.579V43.6459ZM10.1043 20.2106V17.6843C11.9688 17.6843 12.6307 16.3238 12.6307 15.1579H15.157C15.157 17.6691 13.4214 20.2106 10.1043 20.2106Z" fill="#231F20"/>
</g>
<defs>
<clipPath id="clip0_3846_6">
<rect width="48" height="48" fill="white"/>
</clipPath>
</defs>
</svg>
